<svg width="108" height="110" viewBox="0 0 108 110" fill="none" xmlns="http://www.w3.org/2000/svg">
<path d="M44.848 55.6H49.392V72.688C47.3013 74.5227 44.8267 75.9307 41.968 76.912C39.1093 77.8933 36.1013 78.384 32.944 78.384C28.464 78.384 24.432 77.4027 20.848 75.44C17.264 73.4773 14.448 70.768 12.4 67.312C10.352 63.8133 9.328 59.9093 9.328 55.6C9.328 51.2907 10.352 47.408 12.4 43.952C14.448 40.4533 17.264 37.7227 20.848 35.76C24.432 33.7973 28.4853 32.816 33.008 32.816C36.4213 32.816 39.5573 33.3707 42.416 34.48C45.2747 35.5467 47.6853 37.1467 49.648 39.28L46.704 42.288C43.1627 38.7893 38.6613 37.04 33.2 37.04C29.5733 37.04 26.288 37.8507 23.344 39.472C20.4427 41.0507 18.16 43.2693 16.496 46.128C14.832 48.944 14 52.1013 14 55.6C14 59.0987 14.832 62.256 16.496 65.072C18.16 67.888 20.4427 70.1067 23.344 71.728C26.2453 73.3493 29.5093 74.16 33.136 74.16C37.744 74.16 41.648 73.008 44.848 70.704V55.6ZM82.252 78.384C77.8147 78.384 73.804 77.4027 70.22 75.44C66.6787 73.4773 63.884 70.768 61.836 67.312C59.8307 63.8133 58.828 59.9093 58.828 55.6C58.828 51.2907 59.8307 47.408 61.836 43.952C63.884 40.4533 66.7 37.7227 70.284 35.76C73.868 33.7973 77.8787 32.816 82.316 32.816C85.644 32.816 88.716 33.3707 91.532 34.48C94.348 35.5893 96.7373 37.2107 98.7 39.344L95.692 42.352C92.1933 38.8107 87.7773 37.04 82.444 37.04C78.9027 37.04 75.6813 37.8507 72.78 39.472C69.8787 41.0933 67.596 43.312 65.932 46.128C64.3107 48.944 63.5 52.1013 63.5 55.6C63.5 59.0987 64.3107 62.256 65.932 65.072C67.596 67.888 69.8787 70.1067 72.78 71.728C75.6813 73.3493 78.9027 74.16 82.444 74.16C87.82 74.16 92.236 72.368 95.692 68.784L98.7 71.792C96.7373 73.9253 94.3267 75.568 91.468 76.72C88.652 77.8293 85.58 78.384 82.252 78.384Z" fill="black"/>
<rect x="1.5" y="1.5" width="105" height="107" rx="52.5" stroke="black" stroke-width="3"/>
</svg>
