<svg width="128" height="122" viewBox="0 0 128 122" fill="none" xmlns="http://www.w3.org/2000/svg">
<rect width="128" height="122" fill="white"/>
<path d="M64.504 83.904V87H10V83.904H27.424C23.248 81.792 19.912 78.696 17.416 74.616C14.968 70.536 13.744 65.928 13.744 60.792C13.744 53.448 16.288 47.4 21.376 42.648C26.464 37.848 32.632 35.448 39.88 35.448C47.176 35.448 53.224 37.56 58.024 41.784L53.488 48.264C51.52 46.584 49.528 45.432 47.512 44.808C45.544 44.136 43.24 43.8 40.6 43.8C35.464 43.8 31.168 45.336 27.712 48.408C24.304 51.48 22.6 55.68 22.6 61.008C22.6 66.336 24.28 70.632 27.64 73.896C31 77.112 35.056 78.72 39.808 78.72C44.608 78.72 48.616 77.688 51.832 75.624V61.8H60.328V79.008C58.552 80.976 56.392 82.608 53.848 83.904H64.504ZM117.484 83.904V87H64.4922V83.904H80.4762C76.6842 81.648 73.6842 78.576 71.4762 74.688C69.3162 70.8 68.2362 66.408 68.2362 61.512C68.2362 54.12 70.7802 47.928 75.8682 42.936C81.0042 37.944 87.4602 35.448 95.2362 35.448C103.06 35.448 109.588 38.328 114.82 44.088L109.42 49.992C107.02 47.688 104.74 46.08 102.58 45.168C100.468 44.256 97.9722 43.8 95.0922 43.8C90.0042 43.8 85.7322 45.456 82.2762 48.768C78.8202 52.032 77.0922 56.232 77.0922 61.368C77.0922 66.456 78.7962 70.728 82.2042 74.184C85.6602 77.592 89.7402 79.296 94.4442 79.296C97.3722 79.296 99.8922 78.816 102.004 77.856C104.116 76.848 106.324 75.264 108.628 73.104L114.1 78.72C111.988 81.024 109.972 82.752 108.052 83.904H117.484Z" fill="black"/>
</svg>
