<svg width="110" height="88" viewBox="0 0 110 88" fill="none" xmlns="http://www.w3.org/2000/svg">
<path d="M55.504 66.904V70H1V66.904H18.424C14.248 64.792 10.912 61.696 8.416 57.616C5.968 53.536 4.744 48.928 4.744 43.792C4.744 36.448 7.288 30.4 12.376 25.648C17.464 20.848 23.632 18.448 30.88 18.448C38.176 18.448 44.224 20.56 49.024 24.784L44.488 31.264C42.52 29.584 40.528 28.432 38.512 27.808C36.544 27.136 34.24 26.8 31.6 26.8C26.464 26.8 22.168 28.336 18.712 31.408C15.304 34.48 13.6 38.68 13.6 44.008C13.6 49.336 15.28 53.632 18.64 56.896C22 60.112 26.056 61.72 30.808 61.72C35.608 61.72 39.616 60.688 42.832 58.624V44.8H51.328V62.008C49.552 63.976 47.392 65.608 44.848 66.904H55.504Z" fill="white"/>
<path d="M108.484 66.904V70H55.4922V66.904H71.4762C67.6842 64.648 64.6842 61.576 62.4762 57.688C60.3162 53.8 59.2362 49.408 59.2362 44.512C59.2362 37.12 61.7802 30.928 66.8682 25.936C72.0042 20.944 78.4602 18.448 86.2362 18.448C94.0602 18.448 100.588 21.328 105.82 27.088L100.42 32.992C98.0202 30.688 95.7402 29.08 93.5802 28.168C91.4682 27.256 88.9722 26.8 86.0922 26.8C81.0042 26.8 76.7322 28.456 73.2762 31.768C69.8202 35.032 68.0922 39.232 68.0922 44.368C68.0922 49.456 69.7962 53.728 73.2042 57.184C76.6602 60.592 80.7402 62.296 85.4442 62.296C88.3722 62.296 90.8922 61.816 93.0042 60.856C95.1162 59.848 97.3242 58.264 99.6282 56.104L105.1 61.72C102.988 64.024 100.972 65.752 99.0522 66.904H108.484Z" fill="#B3B3B3"/>
<path d="M55.504 66.904H56.504V65.904H55.504V66.904ZM55.504 70V71H56.504V70H55.504ZM1 70H0V71H1V70ZM1 66.904V65.904H0V66.904H1ZM18.424 66.904V67.904L18.8753 66.0116L18.424 66.904ZM8.416 57.616L7.55848 58.1305L7.56297 58.1379L8.416 57.616ZM12.376 25.648L13.0586 26.3788L13.0622 26.3754L12.376 25.648ZM49.024 24.784L49.8432 25.3575L50.3564 24.6244L49.6846 24.0333L49.024 24.784ZM44.488 31.264L43.8387 32.0246L44.676 32.7393L45.3072 31.8375L44.488 31.264ZM38.512 27.808L38.1889 28.7543L38.2025 28.759L38.2163 28.7633L38.512 27.808ZM18.712 31.408L18.0476 30.6606L18.0425 30.6652L18.712 31.408ZM18.64 56.896L17.9432 57.6133L17.9485 57.6184L18.64 56.896ZM42.832 58.624L43.3721 59.4656L43.832 59.1704V58.624H42.832ZM42.832 44.8V43.8H41.832V44.8H42.832ZM51.328 44.8H52.328V43.8H51.328V44.8ZM51.328 62.008L52.0704 62.678L52.328 62.3925V62.008H51.328ZM44.848 66.904L44.3941 66.013L44.848 67.904V66.904ZM54.504 66.904V70H56.504V66.904H54.504ZM55.504 69H1V71H55.504V69ZM2 70V66.904H0V70H2ZM1 67.904H18.424V65.904H1V67.904ZM18.8753 66.0116C14.8688 63.9854 11.6704 61.0194 9.26903 57.0941L7.56297 58.1379C10.1536 62.3726 13.6272 65.5986 17.9727 67.7964L18.8753 66.0116ZM9.27349 57.1015C6.92613 53.1892 5.744 48.7617 5.744 43.792H3.744C3.744 49.0943 5.00987 53.8828 7.55851 58.1305L9.27349 57.1015ZM5.744 43.792C5.744 36.708 8.18521 30.9304 13.0586 26.3788L11.6934 24.9172C6.39079 29.8696 3.744 36.188 3.744 43.792H5.744ZM13.0622 26.3754C17.9573 21.7574 23.8769 19.448 30.88 19.448V17.448C23.3871 17.448 16.9707 19.9386 11.6898 24.9206L13.0622 26.3754ZM30.88 19.448C37.9694 19.448 43.7717 21.494 48.3634 25.5347L49.6846 24.0333C44.6763 19.626 38.3826 17.448 30.88 17.448V19.448ZM48.2048 24.2105L43.6688 30.6905L45.3072 31.8375L49.8432 25.3575L48.2048 24.2105ZM45.1373 30.5034C43.0886 28.7546 40.9794 27.5249 38.8077 26.8527L38.2163 28.7633C40.0766 29.3391 41.9514 30.4134 43.8387 32.0246L45.1373 30.5034ZM38.8351 26.8616C36.7394 26.146 34.3217 25.8 31.6 25.8V27.8C34.1583 27.8 36.3486 28.126 38.1889 28.7543L38.8351 26.8616ZM31.6 25.8C26.2483 25.8 21.7074 27.4075 18.0476 30.6606L19.3764 32.1554C22.6286 29.2645 26.6797 27.8 31.6 27.8V25.8ZM18.0425 30.6652C14.3895 33.9581 12.6 38.447 12.6 44.008H14.6C14.6 38.913 16.2185 35.0019 19.3815 32.1508L18.0425 30.6652ZM12.6 44.008C12.6 49.5657 14.3621 54.1345 17.9432 57.6133L19.3368 56.1787C16.1979 53.1295 14.6 49.1063 14.6 44.008H12.6ZM17.9485 57.6184C21.4991 61.0168 25.8046 62.72 30.808 62.72V60.72C26.3074 60.72 22.5009 59.2072 19.3315 56.1736L17.9485 57.6184ZM30.808 62.72C35.7506 62.72 39.9583 61.6566 43.3721 59.4656L42.2919 57.7824C39.2737 59.7194 35.4654 60.72 30.808 60.72V62.72ZM43.832 58.624V44.8H41.832V58.624H43.832ZM42.832 45.8H51.328V43.8H42.832V45.8ZM50.328 44.8V62.008H52.328V44.8H50.328ZM50.5856 61.338C48.8976 63.2086 46.8377 64.7681 44.3941 66.013L45.3019 67.795C47.9463 66.4479 50.2064 64.7434 52.0704 62.678L50.5856 61.338ZM44.848 67.904H55.504V65.904H44.848V67.904ZM108.484 66.904H109.484V65.904H108.484V66.904ZM108.484 70V71H109.484V70H108.484ZM55.4922 70H54.4922V71H55.4922V70ZM55.4922 66.904V65.904H54.4922V66.904H55.4922ZM71.4762 66.904V67.904H75.1129L71.9875 66.0446L71.4762 66.904ZM62.4762 57.688L61.602 58.1737L61.6066 58.1818L62.4762 57.688ZM66.8682 25.936L66.1712 25.2189L66.1678 25.2222L66.8682 25.936ZM105.82 27.088L106.558 27.7629L107.173 27.0903L106.56 26.4156L105.82 27.088ZM100.42 32.992L99.7277 33.7134L100.467 34.4229L101.158 33.6669L100.42 32.992ZM93.5802 28.168L93.1837 29.0861L93.1912 29.0892L93.5802 28.168ZM73.2762 31.768L73.9628 32.495L73.9681 32.49L73.2762 31.768ZM73.2042 57.184L72.4921 57.8862L72.502 57.896L73.2042 57.184ZM93.0042 60.856L93.418 61.7664L93.4265 61.7625L93.4349 61.7585L93.0042 60.856ZM99.6282 56.104L100.344 55.4061L99.6599 54.7036L98.9442 55.3745L99.6282 56.104ZM105.1 61.72L105.837 62.3957L106.476 61.699L105.816 61.0221L105.1 61.72ZM99.0522 66.904L98.5377 66.0465L95.4419 67.904H99.0522V66.904ZM107.484 66.904V70H109.484V66.904H107.484ZM108.484 69H55.4922V71H108.484V69ZM56.4922 70V66.904H54.4922V70H56.4922ZM55.4922 67.904H71.4762V65.904H55.4922V67.904ZM71.9875 66.0446C68.3467 63.8785 65.4693 60.9334 63.3457 57.1942L61.6066 58.1818C63.8991 62.2186 67.0217 65.4175 70.9649 67.7634L71.9875 66.0446ZM63.3503 57.2024C61.281 53.4775 60.2362 49.2556 60.2362 44.512H58.2362C58.2362 49.5604 59.3514 54.1225 61.602 58.1736L63.3503 57.2024ZM60.2362 44.512C60.2362 37.3774 62.68 31.4461 67.5685 26.6498L66.1678 25.2222C60.8804 30.4099 58.2362 36.8626 58.2362 44.512H60.2362ZM67.5652 26.6531C72.4977 21.8589 78.696 19.448 86.2362 19.448V17.448C78.2244 17.448 71.5107 20.0291 66.1712 25.2189L67.5652 26.6531ZM86.2362 19.448C93.7801 19.448 100.039 22.2103 105.08 27.7604L106.56 26.4156C101.138 20.4457 94.3403 17.448 86.2362 17.448V19.448ZM105.082 26.4131L99.6823 32.3171L101.158 33.6669L106.558 27.7629L105.082 26.4131ZM101.113 32.2706C98.6586 29.9146 96.2782 28.2217 93.9692 27.2467L93.1912 29.0892C95.2022 29.9383 97.3818 31.4613 99.7277 33.7134L101.113 32.2706ZM93.9766 27.2499C91.7122 26.2721 89.0753 25.8 86.0922 25.8V27.8C88.8691 27.8 91.2242 28.2399 93.1838 29.0861L93.9766 27.2499ZM86.0922 25.8C80.7642 25.8 76.239 27.5436 72.5843 31.046L73.9681 32.49C77.2254 29.3684 81.2442 27.8 86.0922 27.8V25.8ZM72.5896 31.041C68.9163 34.5102 67.0922 38.9815 67.0922 44.368H69.0922C69.0922 39.4825 70.7241 35.5538 73.9628 32.495L72.5896 31.041ZM67.0922 44.368C67.0922 49.7047 68.89 54.2332 72.4922 57.8861L73.9162 56.4819C70.7024 53.2228 69.0922 49.2073 69.0922 44.368H67.0922ZM72.502 57.896C76.1385 61.482 80.4682 63.296 85.4442 63.296V61.296C81.0122 61.296 77.1819 59.702 73.9063 56.472L72.502 57.896ZM85.4442 63.296C88.4787 63.296 91.1467 62.7988 93.418 61.7664L92.5904 59.9456C90.6377 60.8332 88.2656 61.296 85.4442 61.296V63.296ZM93.4349 61.7585C95.6657 60.6938 97.9575 59.041 100.312 56.8335L98.9442 55.3745C96.6909 57.487 94.5667 59.0022 92.5735 59.9535L93.4349 61.7585ZM98.912 56.8019L104.384 62.4179L105.816 61.0221L100.344 55.4061L98.912 56.8019ZM104.363 61.0443C102.292 63.3031 100.35 64.9593 98.5377 66.0465L99.5667 67.7615C101.595 66.5447 103.684 64.7449 105.837 62.3957L104.363 61.0443ZM99.0522 67.904H108.484V65.904H99.0522V67.904Z" fill="black"/>
</svg>
