<svg width="108" height="52" viewBox="0 0 108 52" fill="none" xmlns="http://www.w3.org/2000/svg">
<path d="M54.504 48.904V52H0V48.904H17.424C13.248 46.792 9.912 43.696 7.416 39.616C4.968 35.536 3.744 30.928 3.744 25.792C3.744 18.448 6.288 12.4 11.376 7.648C16.464 2.848 22.632 0.447999 29.88 0.447999C37.176 0.447999 43.224 2.56 48.024 6.784L43.488 13.264C41.52 11.584 39.528 10.432 37.512 9.808C35.544 9.136 33.24 8.8 30.6 8.8C25.464 8.8 21.168 10.336 17.712 13.408C14.304 16.48 12.6 20.68 12.6 26.008C12.6 31.336 14.28 35.632 17.64 38.896C21 42.112 25.056 43.72 29.808 43.72C34.608 43.72 38.616 42.688 41.832 40.624V26.8H50.328V44.008C48.552 45.976 46.392 47.608 43.848 48.904H54.504Z" fill="white"/>
<path d="M107.484 48.904V52H54.4922V48.904H70.4762C66.6842 46.648 63.6842 43.576 61.4762 39.688C59.3162 35.8 58.2362 31.408 58.2362 26.512C58.2362 19.12 60.7802 12.928 65.8682 7.936C71.0042 2.944 77.4602 0.447999 85.2362 0.447999C93.0602 0.447999 99.5882 3.328 104.82 9.088L99.4202 14.992C97.0202 12.688 94.7402 11.08 92.5802 10.168C90.4682 9.256 87.9722 8.8 85.0922 8.8C80.0042 8.8 75.7322 10.456 72.2762 13.768C68.8202 17.032 67.0922 21.232 67.0922 26.368C67.0922 31.456 68.7962 35.728 72.2042 39.184C75.6602 42.592 79.7402 44.296 84.4442 44.296C87.3722 44.296 89.8922 43.816 92.0042 42.856C94.1162 41.848 96.3242 40.264 98.6282 38.104L104.1 43.72C101.988 46.024 99.9722 47.752 98.0522 48.904H107.484Z" fill="#B3B3B3"/>
</svg>
